<?xml version="1.0" encoding="UTF-8"?>
<svg xmlns="http://www.w3.org/2000/svg" xmlns:xlink="http://www.w3.org/1999/xlink" version="1.1" viewBox="0 0 110 110">
  <defs>
    <style>
      .cls-1 {
        fill: #212121;
      }

      .cls-2 {
        fill: url(#Dégradé_sans_nom_28);
      }

      .cls-3 {
        fill: url(#Dégradé_sans_nom_29);
      }

      .cls-4 {
        fill: url(#Dégradé_sans_nom_30);
      }

      .cls-5 {
        fill: url(#Dégradé_sans_nom_26);
      }

      .cls-6 {
        fill: url(#Dégradé_sans_nom_25);
      }

      .cls-7 {
        fill: url(#Dégradé_sans_nom_27);
      }
    </style>
    <linearGradient id="Dégradé_sans_nom_25" data-name="Dégradé sans nom 25" x1="7.1" y1="58.6" x2="102.9" y2="58.6" gradientTransform="translate(0 114) scale(1 -1)" gradientUnits="userSpaceOnUse">
      <stop offset="0" stop-color="#ffea83"/>
      <stop offset="0" stop-color="#ffe574"/>
      <stop offset=".2" stop-color="#ffdb59"/>
      <stop offset=".3" stop-color="#ffd548"/>
      <stop offset=".3" stop-color="#ffd342"/>
      <stop offset=".9" stop-color="#ffcc42"/>
    </linearGradient>
    <linearGradient id="Dégradé_sans_nom_26" data-name="Dégradé sans nom 26" x1="55.3" y1="52" x2="55.3" y2="29.9" gradientTransform="translate(0 114) scale(1 -1)" gradientUnits="userSpaceOnUse">
      <stop offset="0" stop-color="#000"/>
      <stop offset=".2" stop-color="#141414"/>
      <stop offset=".5" stop-color="#2a2a2a"/>
      <stop offset=".8" stop-color="#383837"/>
      <stop offset="1" stop-color="#3c3c3b"/>
    </linearGradient>
    <linearGradient id="Dégradé_sans_nom_27" data-name="Dégradé sans nom 27" x1="7" y1="37" x2="102.9" y2="37" gradientTransform="translate(0 114) scale(1 -1)" gradientUnits="userSpaceOnUse">
      <stop offset="0" stop-color="#ffea83"/>
      <stop offset="0" stop-color="#ffe574"/>
      <stop offset=".2" stop-color="#ffdb59"/>
      <stop offset=".3" stop-color="#ffd548"/>
      <stop offset=".3" stop-color="#ffd342"/>
      <stop offset=".9" stop-color="#ffcc42"/>
    </linearGradient>
    <linearGradient id="Dégradé_sans_nom_28" data-name="Dégradé sans nom 28" x1="23.1" y1="37" x2="37.8" y2="37" gradientTransform="translate(0 114) scale(1 -1)" gradientUnits="userSpaceOnUse">
      <stop offset="0" stop-color="#55c4ff"/>
      <stop offset=".4" stop-color="#55b4ff"/>
      <stop offset="1" stop-color="#558cff"/>
    </linearGradient>
    <linearGradient id="Dégradé_sans_nom_29" data-name="Dégradé sans nom 29" x1="7" y1="37.1" x2="102.9" y2="37.1" gradientTransform="translate(0 114) scale(1 -1)" gradientUnits="userSpaceOnUse">
      <stop offset="0" stop-color="#ffea83"/>
      <stop offset="0" stop-color="#ffe574"/>
      <stop offset=".2" stop-color="#ffdb59"/>
      <stop offset=".3" stop-color="#ffd548"/>
      <stop offset=".3" stop-color="#ffd342"/>
      <stop offset=".9" stop-color="#ffcc42"/>
    </linearGradient>
    <linearGradient id="Dégradé_sans_nom_30" data-name="Dégradé sans nom 30" x1="72.8" y1="37.1" x2="87.6" y2="37.1" gradientTransform="translate(0 114) scale(1 -1)" gradientUnits="userSpaceOnUse">
      <stop offset="0" stop-color="#55c4ff"/>
      <stop offset=".4" stop-color="#55b4ff"/>
      <stop offset="1" stop-color="#558cff"/>
    </linearGradient>
  </defs>
  <!-- Generator: Adobe Illustrator 28.7.1, SVG Export Plug-In . SVG Version: 1.2.0 Build 142)  -->
  <g>
    <g id="Calque_2">
      <g>
        <circle class="cls-6" cx="55" cy="55.4" r="47.9"/>
        <circle class="cls-5" cx="55.3" cy="73" r="11"/>
        <g>
          <path class="cls-1" d="M21.8,43.2c-.8,0-1.5-.5-1.9-1.3-.4-1,0-2.2,1.1-2.6l13.9-5.6c1-.4,2.2,0,2.6,1.1.4,1,0,2.2-1.1,2.6l-13.9,5.6c-.2,0-.5.1-.7.1Z"/>
          <path class="cls-1" d="M88.8,43.2c-.2,0-.5,0-.7-.1l-13.9-5.6c-1-.4-1.5-1.6-1.1-2.6.4-1,1.6-1.5,2.6-1.1l13.9,5.6c1,.4,1.5,1.6,1.1,2.6-.3.8-1.1,1.3-1.9,1.3Z"/>
        </g>
        <g>
          <path class="cls-7" d="M23.1,53.8v37.3c4.3,3.8,9.3,6.9,14.7,9v-46.3h-14.7Z"/>
          <path class="cls-2" d="M23.1,53.8v37.3c4.3,3.8,9.3,6.9,14.7,9v-46.3h-14.7Z"/>
          <path class="cls-3" d="M72.8,53.8v46.1c5.5-2.2,10.5-5.4,14.7-9.3v-36.7h-14.7Z"/>
          <path class="cls-4" d="M72.8,53.8v46.1c5.5-2.2,10.5-5.4,14.7-9.3v-36.7h-14.7Z"/>
        </g>
        <g>
          <path class="cls-1" d="M40.2,55.4h-19.8c-1.1,0-2-.9-2-2s.9-2,2-2h19.8c1.1,0,2,.9,2,2s-.9,2-2,2Z"/>
          <path class="cls-1" d="M90.3,55.4h-19.8c-1.1,0-2-.9-2-2s.9-2,2-2h19.8c1.1,0,2,.9,2,2s-.9,2-2,2Z"/>
        </g>
      </g>
    </g>
  </g>
</svg>
