<?xml version="1.0" encoding="UTF-8"?>
<svg xmlns="http://www.w3.org/2000/svg" xmlns:xlink="http://www.w3.org/1999/xlink" version="1.1" viewBox="0 0 110 110">
  <defs>
    <style>
      .cls-1 {
        fill: url(#Dégradé_sans_nom_4);
      }

      .cls-2 {
        fill: url(#Dégradé_sans_nom_5);
      }

      .cls-3 {
        fill: url(#Dégradé_sans_nom_2);
      }

      .cls-4 {
        fill: url(#Dégradé_sans_nom_3);
      }

      .cls-5 {
        fill: #212121;
      }

      .cls-6 {
        fill: #f25268;
      }
    </style>
    <linearGradient id="Dégradé_sans_nom_2" data-name="Dégradé sans nom 2" x1="7.1" y1="59" x2="102.9" y2="59" gradientTransform="translate(0 114) scale(1 -1)" gradientUnits="userSpaceOnUse">
      <stop offset="0" stop-color="#ffea83"/>
      <stop offset="0" stop-color="#ffe574"/>
      <stop offset=".2" stop-color="#ffdb59"/>
      <stop offset=".3" stop-color="#ffd548"/>
      <stop offset=".3" stop-color="#ffd342"/>
      <stop offset=".9" stop-color="#ffcc42"/>
    </linearGradient>
    <linearGradient id="Dégradé_sans_nom_3" data-name="Dégradé sans nom 3" x1="55.6" y1="54.2" x2="55.6" y2="21.2" gradientTransform="translate(0 114) scale(1 -1)" gradientUnits="userSpaceOnUse">
      <stop offset="0" stop-color="#000"/>
      <stop offset="0" stop-color="#0e0e0e"/>
      <stop offset=".2" stop-color="#232322"/>
      <stop offset=".4" stop-color="#313130"/>
      <stop offset=".6" stop-color="#393938"/>
      <stop offset="1" stop-color="#3c3c3b"/>
    </linearGradient>
    <linearGradient id="Dégradé_sans_nom_4" data-name="Dégradé sans nom 4" x1="15.5" y1="51.6" x2="26.3" y2="51.6" gradientTransform="translate(0 114) scale(1 -1)" gradientUnits="userSpaceOnUse">
      <stop offset="0" stop-color="#f46f82"/>
      <stop offset=".3" stop-color="#f25268"/>
      <stop offset="1" stop-color="#f22868"/>
    </linearGradient>
    <linearGradient id="Dégradé_sans_nom_5" data-name="Dégradé sans nom 5" x1="83.6" y1="51.6" x2="94.4" y2="51.6" gradientTransform="translate(0 114) scale(1 -1)" gradientUnits="userSpaceOnUse">
      <stop offset="0" stop-color="#f46f82"/>
      <stop offset=".3" stop-color="#f25268"/>
      <stop offset="1" stop-color="#f22868"/>
    </linearGradient>
  </defs>
  <!-- Generator: Adobe Illustrator 28.7.1, SVG Export Plug-In . SVG Version: 1.2.0 Build 142)  -->
  <g>
    <g id="Calque_4">
      <g>
        <circle class="cls-3" cx="55" cy="55" r="47.9"/>
        <circle class="cls-5" cx="22.1" cy="52.5" r="3.4"/>
        <circle class="cls-5" cx="87.6" cy="52.5" r="3.4"/>
        <path class="cls-4" d="M88.6,59.8c0,18.2-14.7,33-32.9,33-18.2,0-33-14.7-33-32.9h65.9Z"/>
        <path class="cls-6" d="M55.6,72.1c-9.4,0-17.9,4-23.9,10.4,6,6.4,14.5,10.3,23.9,10.3s17.9-4,23.9-10.4c-6-6.4-14.5-10.3-23.9-10.3Z"/>
        <path class="cls-1" d="M26.3,62.4c0,3-2.4,5.4-5.4,5.4s-5.4-2.4-5.4-5.4,2.4-5.4,5.4-5.4,5.4,2.4,5.4,5.4Z"/>
        <path class="cls-2" d="M94.4,62.4c0,3-2.4,5.4-5.4,5.4s-5.4-2.4-5.4-5.4,2.4-5.4,5.4-5.4,5.4,2.4,5.4,5.4Z"/>
      </g>
    </g>
  </g>
</svg>
