<svg width="325" height="253" viewBox="0 0 325 253" fill="none" xmlns="http://www.w3.org/2000/svg">
<path d="M136.19 2H61.1899V252H136.19V2Z" fill="url(#paint0_linear_111_68)"/>
<path d="M321.1 152.73C313.14 136.72 294.06 140.11 279.19 139.87C279.19 139.93 279.72 190.04 279.72 190.13C295.9 189.99 317.38 192.15 322.85 172.99C324.85 165.99 324.62 158.99 321.09 152.72L321.1 152.73Z" fill="url(#paint1_linear_111_68)"/>
<path d="M98.47 66.12C98.54 64.25 98.67 62.38 98.69 60.51C98.81 46.48 98.92 32.44 99.01 18.41C99.04 13.02 99.01 7.62002 99.01 2.03002C99.65 2.03002 100.07 2.03002 100.49 2.03002C116.33 2.03002 132.17 1.98002 148.01 2.07002C150.93 2.09002 153.85 2.71002 156.77 3.01002C161.26 3.47002 165.77 3.78002 170.24 4.37002C176.44 5.19002 182.3 7.42003 188.3 9.06003C197.54 11.59 205.71 16.34 214.09 20.75C219.36 23.53 223.75 27.39 228.33 31.04C230.55 32.81 232.65 34.74 234.94 36.4C238.48 38.97 240.79 42.6 243.51 45.88C246.67 49.7 250.04 53.4 252.75 57.52C259.8 68.25 265.53 79.64 268.83 92.14C269.86 96.04 270.86 99.94 271.87 103.84C272.5 106.27 273.28 108.67 273.68 111.14C274 113.09 273.9 115.12 273.92 117.12C273.96 123.23 273.97 129.34 274 135.45C274.05 146.44 274.11 157.43 274.17 168.43C274.24 181.34 274.44 194.26 274.33 207.17C274.25 215.68 273.83 224.19 273.32 232.68C273.1 236.39 271.24 239.63 268.99 242.54C264.08 248.86 257.44 251.73 249.56 251.68C241.5 251.63 234.65 248.72 229.51 242.36C226.18 238.23 224.68 233.39 224.64 228.11C224.56 217.19 224.53 206.28 224.44 195.36C224.43 193.77 224.12 192.18 224.05 190.59C224.01 189.74 223.68 189.53 222.88 189.53C220 189.55 217.12 189.48 214.24 189.48C208.76 189.48 203.27 189.74 197.81 189.48C186.37 188.95 177.16 181 174.65 169.79C171.6 156.16 181.54 142.88 193.78 140.45C196.38 139.93 199.11 140.06 201.79 140.01C208.75 139.89 215.7 139.82 222.66 139.78C223.87 139.78 224.26 139.34 224.25 138.15C224.18 131.56 224.41 124.95 223.55 118.39C221 99 212.68 82.73 197.47 70.2C196.88 69.72 196.28 69.25 195.7 68.76C185.46 60.05 173.56 55.13 160.31 53.35C157.86 53.02 155.38 52.88 152.92 52.58C151.56 52.42 150.22 52.11 148.7 51.84C148.62 53.38 148.51 54.75 148.5 56.13C148.43 62.65 148.4 69.17 148.34 75.68C148.29 81.91 148.25 88.14 148.18 94.37C148.06 106.46 139.92 119.75 125.48 124.63C118.15 127.11 110.64 127.64 103 126.91C101.49 126.77 99.99 126.52 98.49 126.33C98.49 106.25 98.49 86.17 98.49 66.09L98.47 66.12Z" fill="#212121"/>
<path d="M38.83 216.5C40.54 218.42 41.83 220.56 42.71 222.94C43.59 225.31 44.03 227.78 44.03 230.34C44.03 233.22 43.48 235.94 42.39 238.5C41.3 241.06 39.79 243.3 37.87 245.22C35.95 247.14 33.71 248.64 31.15 249.74C28.59 250.83 25.87 251.38 23 251.38C20.13 251.38 17.32 250.83 14.76 249.74C12.2 248.65 9.98 247.14 8.08 245.22C6.19 243.3 4.68 241.06 3.56 238.5C2.44 235.94 1.88 233.22 1.88 230.34C1.88 227.46 2.44 224.66 3.56 222.1C4.68 219.54 6.19 217.32 8.08 215.42C9.97001 213.53 12.2 212.04 14.76 210.94C17.32 209.85 20.07 209.3 23 209.3H40.43C41.45 209.3 42.3 209.65 42.99 210.34C43.68 211.04 44.03 211.89 44.03 212.9C44.03 213.91 43.69 214.77 42.99 215.46C42.3 216.15 41.44 216.5 40.43 216.5H38.83ZM9.16 230.34C9.16 232.26 9.52 234.06 10.24 235.74C10.96 237.42 11.95 238.89 13.2 240.14C14.45 241.39 15.92 242.38 17.6 243.1C19.28 243.82 21.08 244.18 23 244.18C24.92 244.18 26.72 243.82 28.4 243.1C30.08 242.38 31.55 241.39 32.8 240.14C34.05 238.89 35.04 237.42 35.76 235.74C36.48 234.06 36.84 232.26 36.84 230.34C36.84 228.42 36.48 226.62 35.76 224.94C35.04 223.26 34.05 221.79 32.8 220.54C31.55 219.29 30.08 218.3 28.4 217.58C26.72 216.86 24.92 216.5 23 216.5C21.08 216.5 19.28 216.86 17.6 217.58C15.92 218.3 14.45 219.29 13.2 220.54C11.95 221.79 10.96 223.26 10.24 224.94C9.52 226.62 9.16 228.42 9.16 230.34Z" fill="#212121" stroke="#212121" stroke-width="2" stroke-miterlimit="10"/>
<path d="M31.95 173.32C31.15 172.57 30.75 171.67 30.75 170.6C30.75 169.69 31.05 168.92 31.63 168.28C32.22 167.53 33.02 167.11 34.03 167C35.04 166.89 35.92 167.19 36.67 167.88C39.07 169.91 40.9 172.31 42.15 175.08C43.41 177.85 44.03 180.78 44.03 183.88C44.03 186.76 43.48 189.48 42.39 192.04C41.3 194.6 39.79 196.84 37.87 198.76C35.95 200.68 33.71 202.18 31.15 203.28C28.59 204.37 25.87 204.92 23 204.92C20.13 204.92 17.32 204.37 14.76 203.28C12.2 202.19 9.97999 200.68 8.07999 198.76C6.18999 196.84 4.69999 194.6 3.59999 192.04C2.50999 189.48 1.95999 186.76 1.95999 183.88C1.90999 180.79 2.51999 177.86 3.79999 175.08C5.07999 172.3 6.88999 169.91 9.23999 167.88C9.98999 167.19 10.87 166.89 11.88 167C12.79 167.11 13.58 167.51 14.24 168.2C14.91 168.89 15.24 169.69 15.24 170.6C15.24 171.67 14.81 172.57 13.96 173.32C12.41 174.65 11.23 176.24 10.4 178.08C9.56999 179.92 9.15999 181.85 9.15999 183.88C9.15999 185.8 9.51999 187.6 10.24 189.28C10.96 190.96 11.95 192.43 13.2 193.68C14.45 194.93 15.92 195.92 17.6 196.64C19.28 197.36 21.08 197.72 23 197.72C24.92 197.72 26.72 197.36 28.4 196.64C30.08 195.92 31.55 194.93 32.8 193.68C34.05 192.43 35.04 190.96 35.76 189.28C36.48 187.6 36.84 185.8 36.84 183.88C36.84 181.86 36.41 179.92 35.56 178.08C34.71 176.24 33.51 174.65 31.96 173.32H31.95Z" fill="#212121" stroke="#212121" stroke-width="2" stroke-miterlimit="10"/>
<path d="M31.95 132.06C31.15 131.31 30.75 130.41 30.75 129.34C30.75 128.43 31.05 127.66 31.63 127.02C32.22 126.27 33.02 125.85 34.03 125.74C35.04 125.63 35.92 125.93 36.67 126.62C39.07 128.65 40.9 131.05 42.15 133.82C43.41 136.59 44.03 139.52 44.03 142.62C44.03 145.5 43.48 148.22 42.39 150.78C41.3 153.34 39.79 155.58 37.87 157.5C35.95 159.42 33.71 160.92 31.15 162.02C28.59 163.11 25.87 163.66 23 163.66C20.13 163.66 17.32 163.11 14.76 162.02C12.2 160.93 9.97999 159.42 8.07999 157.5C6.18999 155.58 4.69999 153.34 3.59999 150.78C2.50999 148.22 1.95999 145.5 1.95999 142.62C1.90999 139.53 2.51999 136.6 3.79999 133.82C5.07999 131.05 6.88999 128.65 9.23999 126.62C9.98999 125.93 10.87 125.63 11.88 125.74C12.79 125.85 13.58 126.25 14.24 126.94C14.91 127.63 15.24 128.43 15.24 129.34C15.24 130.41 14.81 131.31 13.96 132.06C12.41 133.39 11.23 134.98 10.4 136.82C9.56999 138.66 9.15999 140.59 9.15999 142.62C9.15999 144.54 9.51999 146.34 10.24 148.02C10.96 149.7 11.95 151.17 13.2 152.42C14.45 153.67 15.92 154.66 17.6 155.38C19.28 156.1 21.08 156.46 23 156.46C24.92 156.46 26.72 156.1 28.4 155.38C30.08 154.66 31.55 153.67 32.8 152.42C34.05 151.17 35.04 149.7 35.76 148.02C36.48 146.34 36.84 144.54 36.84 142.62C36.84 140.6 36.41 138.66 35.56 136.82C34.71 134.98 33.51 133.39 31.96 132.06H31.95Z" fill="#212121" stroke="#212121" stroke-width="2" stroke-miterlimit="10"/>
<path d="M1.95996 101.34C1.95996 98.41 2.50996 95.66 3.59996 93.1C4.68996 90.54 6.18996 88.32 8.07996 86.42C9.96996 84.53 12.2 83.04 14.76 81.94C17.32 80.85 20.07 80.3 23 80.3C24.01 80.3 24.86 80.65 25.56 81.34C26.25 82.04 26.6 82.89 26.6 83.9V114.69C28.09 114.26 29.47 113.62 30.72 112.77C31.97 111.92 33.05 110.9 33.96 109.73C34.87 108.56 35.57 107.25 36.08 105.81C36.59 104.37 36.84 102.88 36.84 101.33C36.84 99.31 36.43 97.39 35.6 95.57C34.77 93.75 33.59 92.19 32.04 90.85C31.19 90.1 30.76 89.2 30.76 88.13C30.76 87.23 31.08 86.42 31.72 85.73C32.36 84.98 33.17 84.58 34.16 84.53C35.15 84.48 36.01 84.77 36.76 85.41C39.11 87.44 40.91 89.82 42.16 92.57C43.42 95.32 44.04 98.24 44.04 101.33C44.04 104.21 43.49 106.93 42.4 109.49C41.31 112.05 39.8 114.29 37.88 116.21C35.96 118.13 33.72 119.63 31.16 120.73C28.6 121.82 25.88 122.37 23.01 122.37C20.14 122.37 17.33 121.82 14.77 120.73C12.21 119.64 9.98996 118.13 8.08996 116.21C6.19996 114.29 4.70996 112.05 3.60996 109.49C2.51996 106.93 1.96996 104.21 1.96996 101.33L1.95996 101.34ZM19.4 87.99C17.85 88.36 16.46 88.99 15.2 89.87C13.95 90.75 12.88 91.78 12 92.95C11.12 94.12 10.43 95.43 9.91996 96.87C9.41996 98.31 9.15996 99.8 9.15996 101.35C9.15996 104.5 10.11 107.3 12 109.75C13.89 112.2 16.36 113.86 19.4 114.71V88V87.99Z" fill="#212121" stroke="#212121" stroke-width="2" stroke-miterlimit="10"/>
<path d="M2.28003 47.53C2.28003 46.57 2.64003 45.73 3.36003 45.01C4.08003 44.29 4.95003 43.93 5.96003 43.93C6.97003 43.93 7.83003 44.29 8.52003 45.01C9.21003 45.73 9.56003 46.57 9.56003 47.53V65.28C9.56003 66.56 10 67.65 10.88 68.56C11.76 69.46 12.84 69.92 14.12 69.92C15.24 69.92 16.21 69.55 17.04 68.8C17.87 68.05 18.33 67.15 18.44 66.08L20.28 51.44C20.49 50 20.93 48.65 21.6 47.4C22.27 46.15 23.12 45.07 24.16 44.16C25.2 43.26 26.37 42.55 27.68 42.04C28.99 41.53 30.36 41.28 31.8 41.28C33.45 41.28 35 41.59 36.44 42.2C37.88 42.81 39.13 43.65 40.2 44.72C41.27 45.79 42.11 47.04 42.72 48.48C43.34 49.92 43.64 51.47 43.64 53.12V72.15C43.64 73.16 43.3 74.01 42.6 74.71C41.9 75.41 41.05 75.75 40.04 75.75C39.03 75.75 38.18 75.4 37.48 74.71C36.78 74.02 36.44 73.16 36.44 72.15V53.12C36.44 51.84 35.99 50.75 35.08 49.84C34.17 48.93 33.08 48.48 31.8 48.48C30.73 48.48 29.77 48.85 28.92 49.6C28.07 50.35 27.59 51.25 27.48 52.32L25.64 66.95C25.48 68.39 25.05 69.74 24.36 70.99C23.67 72.24 22.81 73.32 21.8 74.23C20.79 75.13 19.61 75.84 18.28 76.35C16.95 76.86 15.56 77.11 14.12 77.11C12.52 77.11 11 76.8 9.56003 76.19C8.12003 75.58 6.87003 74.74 5.80003 73.67C4.73003 72.6 3.89003 71.35 3.28003 69.91C2.66003 68.47 2.36003 66.93 2.36003 65.27V47.52H2.28003V47.53Z" fill="#212121" stroke="#212121" stroke-width="2" stroke-miterlimit="10"/>
<path d="M2.28003 8.26001C2.28003 7.30001 2.64003 6.46001 3.36003 5.74001C4.08003 5.02001 4.95003 4.66001 5.96003 4.66001C6.97003 4.66001 7.83003 5.02001 8.52003 5.74001C9.21003 6.46001 9.56003 7.30001 9.56003 8.26001V26.01C9.56003 27.29 10 28.38 10.88 29.29C11.76 30.19 12.84 30.65 14.12 30.65C15.24 30.65 16.21 30.28 17.04 29.53C17.87 28.78 18.33 27.88 18.44 26.81L20.28 12.17C20.49 10.73 20.93 9.38001 21.6 8.13001C22.27 6.88001 23.12 5.80001 24.16 4.89001C25.2 3.99001 26.37 3.28001 27.68 2.77001C28.99 2.26001 30.36 2.01001 31.8 2.01001C33.45 2.01001 35 2.32001 36.44 2.93001C37.88 3.54001 39.13 4.38001 40.2 5.45001C41.27 6.52001 42.11 7.77001 42.72 9.21001C43.34 10.65 43.64 12.2 43.64 13.85V32.88C43.64 33.89 43.3 34.74 42.6 35.44C41.9 36.14 41.05 36.48 40.04 36.48C39.03 36.48 38.18 36.13 37.48 35.44C36.78 34.75 36.44 33.89 36.44 32.88V13.86C36.44 12.58 35.99 11.49 35.08 10.58C34.17 9.67001 33.08 9.22001 31.8 9.22001C30.73 9.22001 29.77 9.59001 28.92 10.34C28.07 11.09 27.59 11.99 27.48 13.06L25.64 27.69C25.48 29.13 25.05 30.48 24.36 31.73C23.67 32.98 22.81 34.06 21.8 34.97C20.79 35.87 19.61 36.58 18.28 37.09C16.95 37.6 15.56 37.85 14.12 37.85C12.52 37.85 11 37.54 9.56003 36.93C8.12003 36.32 6.87003 35.48 5.80003 34.41C4.73003 33.34 3.89003 32.09 3.28003 30.65C2.66003 29.21 2.36003 27.67 2.36003 26.01V8.26001H2.28003Z" fill="#212121" stroke="#212121" stroke-width="2" stroke-miterlimit="10"/>
<defs>
<linearGradient id="paint0_linear_111_68" x1="98.6899" y1="252" x2="98.6899" y2="2" gradientUnits="userSpaceOnUse">
<stop stop-color="#584DFF"/>
<stop offset="1" stop-color="#231E78"/>
</linearGradient>
<linearGradient id="paint1_linear_111_68" x1="301.65" y1="190.15" x2="301.65" y2="139.73" gradientUnits="userSpaceOnUse">
<stop stop-color="#584DFF"/>
<stop offset="1" stop-color="#231E78"/>
</linearGradient>
</defs>
</svg>
