<svg width="265" height="252" viewBox="0 0 265 252" fill="none" xmlns="http://www.w3.org/2000/svg">
<path d="M76 1H1V251H76V1Z" fill="url(#paint0_linear_111_48)"/>
<path d="M260.91 151.73C252.95 135.72 233.87 139.11 219 138.87C219 138.93 219.53 189.04 219.53 189.13C235.71 188.99 257.19 191.15 262.66 171.99C264.66 164.99 264.43 157.99 260.9 151.72L260.91 151.73Z" fill="url(#paint1_linear_111_48)"/>
<path d="M38.28 65.12C38.35 63.25 38.48 61.38 38.5 59.51C38.62 45.48 38.73 31.44 38.82 17.41C38.85 12.02 38.82 6.62002 38.82 1.03002C39.46 1.03002 39.88 1.03002 40.3 1.03002C56.14 1.03002 71.98 0.980025 87.82 1.07002C90.74 1.09002 93.66 1.71002 96.58 2.01002C101.07 2.47002 105.58 2.78002 110.05 3.37002C116.25 4.19002 122.11 6.42003 128.11 8.06003C137.35 10.59 145.52 15.34 153.9 19.75C159.17 22.53 163.56 26.39 168.14 30.04C170.36 31.81 172.46 33.74 174.75 35.4C178.29 37.97 180.6 41.6 183.32 44.88C186.48 48.7 189.85 52.4 192.56 56.52C199.61 67.25 205.34 78.64 208.64 91.14C209.67 95.04 210.67 98.94 211.68 102.84C212.31 105.27 213.09 107.67 213.49 110.14C213.81 112.09 213.71 114.12 213.73 116.12C213.77 122.23 213.78 128.34 213.81 134.45C213.86 145.44 213.92 156.43 213.98 167.43C214.05 180.34 214.25 193.26 214.14 206.17C214.06 214.68 213.64 223.19 213.13 231.68C212.91 235.39 211.05 238.63 208.8 241.54C203.89 247.86 197.25 250.73 189.37 250.68C181.31 250.63 174.46 247.72 169.32 241.36C165.99 237.23 164.49 232.39 164.45 227.11C164.37 216.19 164.34 205.28 164.25 194.36C164.24 192.77 163.93 191.18 163.86 189.59C163.82 188.74 163.49 188.53 162.69 188.53C159.81 188.55 156.93 188.48 154.05 188.48C148.57 188.48 143.08 188.74 137.62 188.48C126.18 187.95 116.97 180 114.46 168.79C111.41 155.16 121.35 141.88 133.59 139.45C136.19 138.93 138.92 139.06 141.6 139.01C148.56 138.89 155.51 138.82 162.47 138.78C163.68 138.78 164.07 138.34 164.06 137.15C163.99 130.56 164.22 123.95 163.36 117.39C160.81 98 152.49 81.73 137.28 69.2C136.69 68.72 136.09 68.25 135.51 67.76C125.27 59.05 113.37 54.13 100.12 52.35C97.67 52.02 95.19 51.88 92.73 51.58C91.37 51.42 90.03 51.11 88.51 50.84C88.43 52.38 88.32 53.75 88.31 55.13C88.24 61.65 88.21 68.17 88.15 74.68C88.1 80.91 88.06 87.14 87.99 93.37C87.87 105.46 79.73 118.75 65.29 123.63C57.96 126.11 50.45 126.64 42.81 125.91C41.3 125.77 39.8 125.52 38.3 125.33C38.3 105.25 38.3 85.17 38.3 65.09L38.28 65.12Z" fill="#212121"/>
<defs>
<linearGradient id="paint0_linear_111_48" x1="38.5" y1="251" x2="38.5" y2="1" gradientUnits="userSpaceOnUse">
<stop stop-color="#584DFF"/>
<stop offset="1" stop-color="#231E78"/>
</linearGradient>
<linearGradient id="paint1_linear_111_48" x1="241.46" y1="189.15" x2="241.46" y2="138.73" gradientUnits="userSpaceOnUse">
<stop stop-color="#584DFF"/>
<stop offset="1" stop-color="#231E78"/>
</linearGradient>
</defs>
</svg>
