<?xml version="1.0" encoding="UTF-8"?>
<svg xmlns="http://www.w3.org/2000/svg" xmlns:xlink="http://www.w3.org/1999/xlink" version="1.1" viewBox="0 0 110 110">
  <defs>
    <style>
      .cls-1 {
        fill: #212121;
      }

      .cls-2 {
        fill: #fff;
      }

      .cls-3 {
        fill: url(#Dégradé_sans_nom_23);
      }

      .cls-4 {
        fill: url(#Dégradé_sans_nom_22);
      }

      .cls-5 {
        fill: url(#Dégradé_sans_nom_21);
      }
    </style>
    <linearGradient id="Dégradé_sans_nom_21" data-name="Dégradé sans nom 21" x1="7.1" y1="59" x2="102.9" y2="59" gradientTransform="translate(0 114) scale(1 -1)" gradientUnits="userSpaceOnUse">
      <stop offset="0" stop-color="#ffea83"/>
      <stop offset="0" stop-color="#ffe574"/>
      <stop offset=".2" stop-color="#ffdb59"/>
      <stop offset=".3" stop-color="#ffd548"/>
      <stop offset=".3" stop-color="#ffd342"/>
      <stop offset=".9" stop-color="#ffcc42"/>
    </linearGradient>
    <linearGradient id="Dégradé_sans_nom_22" data-name="Dégradé sans nom 22" x1="55" y1="46.5" x2="55" y2="21.7" gradientTransform="translate(0 114) scale(1 -1)" gradientUnits="userSpaceOnUse">
      <stop offset="0" stop-color="#000"/>
      <stop offset=".2" stop-color="#111"/>
      <stop offset=".7" stop-color="#303030"/>
      <stop offset="1" stop-color="#3c3c3b"/>
    </linearGradient>
    <linearGradient id="Dégradé_sans_nom_23" data-name="Dégradé sans nom 23" x1="94.8" y1="78.8" x2="81.6" y2="101.6" gradientTransform="translate(0 114) scale(1 -1)" gradientUnits="userSpaceOnUse">
      <stop offset="0" stop-color="#55c4ff"/>
      <stop offset=".4" stop-color="#55b4ff"/>
      <stop offset="1" stop-color="#558cff"/>
    </linearGradient>
  </defs>
  <!-- Generator: Adobe Illustrator 28.7.1, SVG Export Plug-In . SVG Version: 1.2.0 Build 142)  -->
  <g>
    <g id="Calque_3">
      <g>
        <circle class="cls-5" cx="55" cy="55" r="47.9"/>
        <g>
          <path class="cls-2" d="M88,59.3H22c0,2.9.4,5.6,1,8.2h63.9c.7-2.7,1-5.4,1-8.2Z"/>
          <path class="cls-4" d="M55,92.3c15.4,0,28.3-10.6,31.9-24.8H23.1c3.7,14.3,16.6,24.8,32,24.8Z"/>
        </g>
        <path class="cls-3" d="M99.7,26.6c0,5.5-4.5,10-10,10s-10-4.5-10-10,10-18.9,10-18.9c0,0,10,13.3,10,18.9Z"/>
        <g>
          <path class="cls-1" d="M28.5,54.2c-.6,0-1.1-.3-1.3-.8-.4-.7,0-1.6.7-2l8.1-4-8.6-4.7c-.7-.4-1-1.3-.6-2,.4-.7,1.3-1,2-.6l11.1,6.1c.5.3.8.8.8,1.3,0,.6-.3,1.1-.8,1.3l-10.7,5.3c-.2.1-.4.2-.7.2Z"/>
          <path class="cls-1" d="M81.5,54.2c-.2,0-.4,0-.7-.2l-10.7-5.3c-.5-.2-.8-.8-.8-1.3,0-.6.3-1.1.8-1.3l11.1-6.1c.7-.4,1.6-.1,2,.6.4.7.1,1.6-.6,2l-8.6,4.7,8.1,4c.7.4,1,1.3.7,2-.3.5-.8.8-1.3.8Z"/>
        </g>
      </g>
    </g>
  </g>
</svg>
